# xmcd
#
# Track frame offsets:
#	150
#	18539
#	32012
#	49367
#	67812
#	84552
#	103923
#	117244
#	134288
#	157600
#	171505
#	188465
#
# Disc length: 2770 seconds
#
# Revision: 3
# Processed by: cddbd v1.5.2PL0 Copyright (c) Steve Scherf et al.
# Submitted via: EasyCDDAExtractor 11.9.9.666
#
DISCID=970ad00c
DTITLE=Cowboy Troy - Black in the Saddle
DYEAR=2007
DGENRE=Country
TTITLE0=Buffalo Stampede (feat M Shadows of Avenged Sevenfold)
TTITLE1=Lock Me Up (feat J Money and Angela Hacker)
TTITLE2=How Can You Hate Me
TTITLE3=Take Your Best Shot Now (feat J Money)
TTITLE4=Hick Chick (feat Angela Hackere)
TTITLE5=Man With The Microphone
TTITLE6=My Bowtie
TTITLE7=Cruise Control (feat James Otto)
TTITLE8=Paranoid Like Me
TTITLE9=Blackneck Boogie
TTITLE10=Hick Chick (Dance Mix)
TTITLE11=I Play Chicken With The Train (Barn Dance Mix)
EXTD=
EXTT0=
EXTT1=
EXTT2=
EXTT3=
EXTT4=
EXTT5=
EXTT6=
EXTT7=
EXTT8=
EXTT9=
EXTT10=
EXTT11=
PLAYORDER=
